:SAMPLES-PER-SECOND 30
:FULLY-SPECIFIED
:DEGREES
258
root  -61.0511 30.8401 -26.9007 19.3903 49.352 8.21588
RightUpLeg  -30.2464 3.44093 -14.2841
RightLeg  50.2138 0.418953 0.394945
RightFoot  -20.8679 -0.0367191 0.178154
RightToes  -40.8856 -0.225596 -0.32007
Spine  11.5842 -3.43755 -0.921923
Spine1  20.9318 -5.7662 -3.03027
HEad  14.1753 16.1883 -7.06923
LeftShoulder1  0 -2.42657e-020 -4.95415e-022
LeftArm  -23.2061 -4.9592 -79.6378
LeftForeArm  -156.962 -30.3837 -5.47943
LeftHand  10.9184 -24.6056 -47.7093
RightShoulder  0 2.42657e-020 1.07489e-018
RightArm  -9.90206 2.29691 77.9666
RightForeArm  102.673 76.9049 49.5635
RightHand  -7.04456 25.7825 -29.743
LeftUpLeg  -52.2658 -9.16555 12.8969
LeftLeg  33.4392 0.766125 0.433753
LeftFoot  -12.1394 -0.0512767 -0.482228
LeftToes  -14.5143 1.18758e-006 1.19596e-007
259
root  -60.3529 29.6118 -26.7948 19.6715 48.9807 9.90954
RightUpLeg  -31.8192 4.50762 -16.2177
RightLeg  58.1208 -0.199023 -0.356416
RightFoot  -26.4986 0.0671071 0.662575
RightToes  -40.2769 -0.220407 -0.319768
Spine  12.5027 -2.51192 -1.02145
Spine1  22.3778 -3.70944 -2.58358
HEad  12.9077 12.5773 -6.98168
LeftShoulder1  0 -2.42657e-020 -4.95415e-022
LeftArm  -20.531 -7.99085 -80.295
LeftForeArm  -157.073 -31.0421 -5.63443
LeftHand  10.8133 -24.3322 -47.785
RightShoulder  0 2.42657e-020 1.07489e-018
RightArm  -10.9354 10.2571 77.4187
RightForeArm  72.7099 60.1794 17.8943
RightHand  -7.09165 24.9262 -30.9602
LeftUpLeg  -56.5712 -9.43732 14.1581
LeftLeg  36.8039 1.53717 0.997921
LeftFoot  -13.6909 -0.0987026 -0.822195
LeftToes  -13.4978 1.18758e-006 1.19596e-007
260
root  -59.457 28.1706 -26.6583 19.77 48.7232 10.623
RightUpLeg  -33.2355 5.89695 -17.7851
RightLeg  65.6875 -0.739286 -1.51667
RightFoot  -32.385 0.327523 1.50544
RightToes  -39.7561 -0.216538 -0.319591
Spine  13.8421 -0.650509 -0.214614
Spine1  24.19 1.59263 -2.801
HEad  11.9453 9.10095 -7.44397
LeftShoulder1  0 -2.42657e-020 -4.95415e-022
LeftArm  -17.662 -11.8882 -82.3577
LeftForeArm  -157.044 -31.9472 -5.85108
LeftHand  10.7678 -24.0439 -48.1253
RightShoulder  0 2.42657e-020 1.07489e-018
RightArm  -17.9338 16.6663 76.2655
RightForeArm  68.1128 41.3711 8.86812
RightHand  -6.84211 25.0395 -29.7717
LeftUpLeg  -61.3942 -8.90455 15.0672
LeftLeg  42.9671 2.09895 1.71028
LeftFoot  -15.1782 -0.170711 -1.28123
LeftToes  -12.8145 1.18758e-006 1.19596e-007
261
root  -58.3914 26.8385 -26.5907 20.0013 47.632 10.6191
RightUpLeg  -34.5417 7.17556 -19.5868
RightLeg  71.322 -0.848153 -2.24597
RightFoot  -37.112 0.587873 2.12875
RightToes  -40.5972 -0.223271 -0.318471
Spine  14.6462 0.997551 0.861662
Spine1  25.2801 6.06925 -2.34862
HEad  11.6219 6.98969 -8.17752
LeftShoulder1  0 -2.42657e-020 -4.95415e-022
LeftArm  -15.7542 -13.9289 -84.8966
LeftForeArm  -157.792 -32.9554 -6.09751
LeftHand  10.8538 -23.9788 -48.5846
RightShoulder  0 2.42657e-020 1.07489e-018
RightArm  -31.5606 22.0038 75.0921
RightForeArm  63.5121 26.9255 5.07784
RightHand  -5.1536 24.5024 -23.0538
LeftUpLeg  -65.0208 -6.92333 14.4089
LeftLeg  49.8749 1.94726 2.02145
LeftFoot  -15.9568 -0.21032 -1.50054
LeftToes  -14.5369 1.18758e-006 1.19596e-007
262
root  -57.1798 25.9005 -26.5725 19.964 45.799 9.60004
RightUpLeg  -35.1273 9.58498 -21.0641
RightLeg  73.988 -1.14262 -3.41321
RightFoot  -40.1859 0.95452 2.98656
RightToes  -39.9976 -0.218464 -0.315109
Spine  14.4977 2.02282 1.9527
Spine1  25.1231 8.34077 -0.674819
HEad  12.0518 5.79488 -9.27719
LeftShoulder1  0 -2.42657e-020 -4.95415e-022
LeftArm  -15.3131 -13.552 -87.275
LeftForeArm  -158.176 -33.3982 -6.20755
LeftHand  10.822 -23.8933 -48.6158
RightShoulder  0 2.42657e-020 1.07489e-018
RightArm  -56.7064 25.5945 72.289
RightForeArm  59.0416 13.2943 2.34309
RightHand  -3.11056 20.8367 -16.4352
LeftUpLeg  -67.311 -5.13275 14.4929
LeftLeg  55.3484 1.74996 2.20282
LeftFoot  -12.0491 -0.145514 -1.37874
LeftToes  -33.0247 1.18758e-006 1.19596e-007
263
root  -55.9057 25.5916 -26.5428 19.5903 43.8867 7.73142
RightUpLeg  -34.2387 13.7162 -21.6429
RightLeg  72.6844 -2.12634 -5.72224
RightFoot  -41.3627 1.57954 4.56029
RightToes  -38.2823 -0.204909 -0.305215
Spine  13.8757 2.13543 2.87814
Spine1  24.3022 7.69344 2.11233
HEad  10.8929 5.43069 -10.1698
LeftShoulder1  0 -2.42657e-020 -4.95415e-022
LeftArm  -15.3874 -11.7508 -88.6818
LeftForeArm  -159.045 -33.8181 -6.31297
LeftHand  10.9804 -23.8546 -49.3161
RightShoulder  0 2.42657e-020 1.07489e-018
RightArm  -76.1164 22.707 68.403
RightForeArm  46.5313 7.81424 1.36934
RightHand  -2.60495 19.595 -14.636
LeftUpLeg  -70.4869 -2.45744 13.1698
LeftLeg  62.1991 0.601547 0.970753
LeftFoot  -9.62177 -0.0826987 -0.982579
LeftToes  -31.7959 1.18758e-006 1.19596e-007
264
root  -54.2145 25.8717 -26.4946 19.5336 41.7576 7.43621
RightUpLeg  -30.5795 17.8337 -23.2584
RightLeg  67.9551 -3.81865 -8.00923
RightFoot  -40.1136 2.12183 6.18511
RightToes  -37.4493 -0.198434 -0.300265
Spine  13.5614 1.46614 3.15219
Spine1  23.8418 5.20585 4.30854
HEad  8.96351 5.44558 -10.6906
LeftShoulder1  0 -2.42657e-020 -4.95415e-022
LeftArm  -16.0687 -10.1403 -89.5328
LeftForeArm  -159.723 -33.3933 -6.20644
LeftHand  11.0453 -23.5825 -50.0867
RightShoulder  0 2.42657e-020 1.07489e-018
RightArm  -82.053 17.5811 67.3734
RightForeArm  35.8164 10.2296 1.8172
RightHand  -1.63644 20.5302 -8.65065
LeftUpLeg  -69.4406 -1.60332 10.5631
LeftLeg  64.464 -0.515775 -0.9346
LeftFoot  -7.42264 -0.0403665 -0.622313
LeftToes  -32.2017 1.18758e-006 1.19596e-007
265
root  -52.3114 26.5021 -26.3514 18.7427 39.1563 6.60475
RightUpLeg  -26.1456 21.8907 -24.2797
RightLeg  62.022 -6.40152 -10.3384
RightFoot  -35.5849 2.30726 7.5588
RightToes  -37.8964 -0.201901 -0.302933
Spine  12.9464 0.778632 3.16307
Spine1  22.9672 2.93487 5.46334
HEad  8.83555 7.18905 -11.127
LeftShoulder1  0 -2.42657e-020 -4.95415e-022
LeftArm  -17.0118 -7.88422 -89.6442
LeftForeArm  -160.735 -32.7148 -6.03845
LeftHand  11.2217 -23.7144 -50.5344
RightShoulder  0 2.42657e-020 1.07489e-018
RightArm  -76.8343 11.2861 68.6261
RightForeArm  26.1566 16.4741 2.9851
RightHand  -0.0519027 20.8895 0.0884805
LeftUpLeg  -66.2334 -0.803878 8.08477
LeftLeg  64.8518 -1.41411 -2.57977
LeftFoot  -5.77104 -0.0191778 -0.380486
LeftToes  -30.5577 1.18758e-006 1.19596e-007
266
root  -50.4229 27.3764 -26.0627 17.4052 36.6795 5.29727
RightUpLeg  -23.8615 23.7874 -23.9173
RightLeg  60.2367 -8.88619 -13.2362
RightFoot  -25.1398 1.566 7.39264
RightToes  -40.9988 -0.226511 -0.320694
Spine  12.3188 -0.149483 3.25764
Spine1  22.0926 0.495376 6.0924
HEad  10.4863 10.249 -12.1615
LeftShoulder1  0 -2.42657e-020 -4.95415e-022
LeftArm  -18.9191 -5.26005 -89.4335
LeftForeArm  -160.857 -32.213 -5.91575
LeftHand  11.2616 -24.0032 -50.1443
RightShoulder  0 2.42657e-020 1.07489e-018
RightArm  -68.2309 4.93047 69.8099
RightForeArm  15.8279 24.1756 4.53461
RightHand  0.228418 20.7695 1.61688
LeftUpLeg  -61.8371 -0.05308 6.12895
LeftLeg  63.9458 -1.63041 -2.86372
LeftFoot  -5.65688 -0.0117896 -0.238636
LeftToes  -28.1371 1.18758e-006 1.19596e-007
267
root  -48.6108 28.4254 -25.6757 15.8022 34.8429 4.0372
RightUpLeg  -24.2359 21.4231 -22.0768
RightLeg  63.1546 -10.0786 -16.6108
RightFoot  -14.8654 0.687785 5.64627
RightToes  -20.9251 -0.0866755 -0.184218
Spine  11.9637 -1.49347 3.2939
Spine1  21.809 -2.6723 6.30341
HEad  11.2332 13.8839 -12.8624
LeftShoulder1  0 -2.42657e-020 -4.95415e-022
LeftArm  -21.535 -3.13492 -88.8204
LeftForeArm  -160.118 -32.0368 -5.87287
LeftHand  11.3402 -24.0819 -50.3032
RightShoulder  0 2.42657e-020 1.07489e-018
RightArm  -65.3563 0.420528 71.1894
RightForeArm  11.3831 32.8544 6.53338
RightHand  0.283292 20.7805 1.91551
LeftUpLeg  -56.1825 -0.154667 4.54377
LeftLeg  61.2856 -0.769416 -1.22341
LeftFoot  -7.69033 -0.0152657 -0.227137
LeftToes  -24.4437 1.18758e-006 1.19596e-007
268
root  -46.9057 29.5064 -25.2439 14.6602 33.106 3.37121
RightUpLeg  -26.1904 16.4122 -19.6569
RightLeg  64.7357 -4.41325 -8.03279
RightFoot  -11.7767 0.191852 2.23773
RightToes  -21.0259 -0.0872512 -0.185019
Spine  11.6565 -3.03113 2.95809
Spine1  21.7296 -6.13766 5.61503
HEad  10.8385 18.047 -13.8637
LeftShoulder1  0 -2.42657e-020 -4.95415e-022
LeftArm  -24.0365 -0.781536 -87.3838
LeftForeArm  -161.531 -32.5084 -5.98798
LeftHand  11.5364 -24.1924 -50.8554
RightShoulder  0 2.42657e-020 1.07489e-018
RightArm  -58.5485 -2.99836 72.1847
RightForeArm  12.397 42.0247 9.14823
RightHand  -0.0931351 20.6691 -0.140769
LeftUpLeg  -50.252 -0.336069 2.72136
LeftLeg  57.2232 0.371919 0.493833
LeftFoot  -8.12158 -0.0221089 -0.311431
LeftToes  -23.0369 1.18758e-006 1.19596e-007
269
root  -45.33 30.3772 -24.7906 14.0569 30.8151 3.56682
RightUpLeg  -28.9225 10.8212 -16.304
RightLeg  66.1101 0.895639 1.58445
RightFoot  -10.8319 -0.0451235 -0.0983983
RightToes  -37.5299 -0.199058 -0.300748
Spine  11.3741 -4.46258 2.42167
Spine1  21.6858 -8.89345 3.64705
HEad  10.8143 23.2628 -15.0864
LeftShoulder1  0 -2.42657e-020 -4.95415e-022
LeftArm  -26.3121 2.90048 -84.8887
LeftForeArm  -164.179 -34.221 -6.41652
LeftHand  11.672 -24.6554 -50.5125
RightShoulder  0 2.42657e-020 1.07489e-018
RightArm  -50.8942 -6.81334 73.9411
RightForeArm  19.9488 56.0242 15.2202
RightHand  -0.845969 20.9805 -4.19769
LeftUpLeg  -44.671 0.691265 0.213735
LeftLeg  53.2303 1.07389 1.25095
LeftFoot  -8.59169 -0.0270476 -0.360078
LeftToes  -20.9304 1.18758e-006 1.19596e-007
270
root  -43.928 31.1355 -24.4084 13.9338 27.7222 3.33012
RightUpLeg  -32.3396 4.37278 -11.0155
RightLeg  65.0594 0.740197 1.23445
RightFoot  -13.245 -0.0613831 -0.151155
RightToes  -40.3378 -0.221188 -0.317023
Spine  11.2381 -5.42882 2.0685
Spine1  21.7768 -10.3422 1.50198
HEad  10.5773 28.5381 -16.3166
LeftShoulder1  0 -2.42657e-020 -4.95415e-022
LeftArm  -28.982 6.51778 -82.777
LeftForeArm  -165.411 -36.0288 -6.88809
LeftHand  11.7196 -24.6762 -50.6544
RightShoulder  0 2.42657e-020 1.07489e-018
RightArm  -43.1292 -7.3508 74.7116
RightForeArm  33.9958 64.3224 21.6375
RightHand  -2.05955 21.5157 -10.4418
LeftUpLeg  -40.8676 2.72307 -1.32057
LeftLeg  50.401 0.410492 0.428336
LeftFoot  -7.58926 -0.00892168 -0.134522
LeftToes  -21.68 1.18758e-006 1.19596e-007
271
root  -42.6741 31.7526 -24.2289 14.5405 24.1218 3.44169
RightUpLeg  -35.8406 -1.89719 -5.11707
RightLeg  60.8887 -0.94831 -1.56411
RightFoot  -15.3989 0.0311099 0.607687
RightToes  -38.9587 -0.210219 -0.309165
Spine  11.2878 -5.95348 1.61844
Spine1  21.9069 -10.9358 -0.582768
HEad  9.49357 32.2729 -17.5747
LeftShoulder1  0 -2.42657e-020 -4.95415e-022
LeftArm  -30.7549 8.94846 -80.9081
LeftForeArm  -166.43 -37.6382 -7.3268
LeftHand  11.9522 -24.6389 -51.6021
RightShoulder  0 2.42657e-020 1.07489e-018
RightArm  -34.9536 -4.83176 75.4798
RightForeArm  46.2167 68.4347 26.6755
RightHand  -3.55151 22.0167 -17.7452
LeftUpLeg  -41.026 5.62542 -2.55394
LeftLeg  52.2011 -2.61847 -2.96599
LeftFoot  -2.50335 0.00424578 0.194311
LeftToes  -28.7522 1.18758e-006 1.19596e-007
272
root  -41.376 32.0741 -24.1976 15.4996 19.9882 4.5289
RightUpLeg  -39.0824 -5.4405 -1.18513
RightLeg  56.3018 0.572683 0.679891
RightFoot  -15.8175 -0.0740639 -0.155607
RightToes  -42.9669 -0.242607 -0.331261
Spine  11.7266 -5.72922 0.82324
Spine1  22.4956 -10.1062 -2.85842
HEad  7.68933 33.2082 -18.1515
LeftShoulder1  0 -2.42657e-020 -4.95415e-022
LeftArm  -30.8998 8.19922 -78.6436
LeftForeArm  -167.756 -36.3134 -6.96578
LeftHand  12.0071 -24.9297 -51.2677
RightShoulder  0 2.42657e-020 1.07489e-018
RightArm  -28.5485 -0.606943 77.0813
RightForeArm  59.8282 70.8125 30.6523
RightHand  -4.65338 22.5477 -22.6766
LeftUpLeg  -43.6864 7.01433 -3.19535
LeftLeg  58.02 -7.50194 -10.3217
LeftFoot  3.51877 0.0208877 -0.680012
LeftToes  -30.5581 1.18758e-006 1.19596e-007
